<mxfile host="app.diagrams.net" agent="Mozilla/5.0 (Windows NT 10.0; Win64; x64) AppleWebKit/537.36 (KHTML, like Gecko) Chrome/130.0.0.0 Safari/537.36" version="24.7.17">
  <diagram name="Page-1" id="RVRdRL7vLZJ8BDP7MqQr">
    <mxGraphModel dx="1050" dy="1699" grid="1" gridSize="10" guides="1" tooltips="1" connect="1" arrows="1" fold="1" page="1" pageScale="1" pageWidth="827" pageHeight="1169" math="0" shadow="0">
      <root>
        <mxCell id="0" />
        <mxCell id="1" parent="0" />
        <mxCell id="3AiJn113C2eabqiWwvcP-3" style="edgeStyle=orthogonalEdgeStyle;rounded=0;orthogonalLoop=1;jettySize=auto;html=1;exitX=0.5;exitY=0;exitDx=0;exitDy=0;exitPerimeter=0;entryX=0.5;entryY=1;entryDx=0;entryDy=0;" edge="1" parent="1" source="3AiJn113C2eabqiWwvcP-1" target="3AiJn113C2eabqiWwvcP-2">
          <mxGeometry relative="1" as="geometry" />
        </mxCell>
        <object placeholders="1" c4Name="Song Snippets" c4Type="Software System" c4Description="A web based music guessing game." label="&lt;font style=&quot;font-size: 16px&quot;&gt;&lt;b&gt;%c4Name%&lt;/b&gt;&lt;/font&gt;&lt;div&gt;[%c4Type%]&lt;/div&gt;&lt;br&gt;&lt;div&gt;&lt;font style=&quot;font-size: 11px&quot;&gt;&lt;font color=&quot;#cccccc&quot;&gt;%c4Description%&lt;/font&gt;&lt;/div&gt;" id="3AiJn113C2eabqiWwvcP-1">
          <mxCell style="rounded=1;whiteSpace=wrap;html=1;labelBackgroundColor=none;fillColor=#1061B0;fontColor=#ffffff;align=center;arcSize=10;strokeColor=#0D5091;metaEdit=1;resizable=0;points=[[0.25,0,0],[0.5,0,0],[0.75,0,0],[1,0.25,0],[1,0.5,0],[1,0.75,0],[0.75,1,0],[0.5,1,0],[0.25,1,0],[0,0.75,0],[0,0.5,0],[0,0.25,0]];" vertex="1" parent="1">
            <mxGeometry x="174" y="270" width="240" height="120" as="geometry" />
          </mxCell>
        </object>
        <mxCell id="3AiJn113C2eabqiWwvcP-8" style="edgeStyle=orthogonalEdgeStyle;rounded=0;orthogonalLoop=1;jettySize=auto;html=1;exitX=1;exitY=0.5;exitDx=0;exitDy=0;entryX=0;entryY=0.5;entryDx=0;entryDy=0;" edge="1" parent="1" source="3AiJn113C2eabqiWwvcP-2" target="3AiJn113C2eabqiWwvcP-7">
          <mxGeometry relative="1" as="geometry" />
        </mxCell>
        <mxCell id="3AiJn113C2eabqiWwvcP-2" value="" style="rounded=0;whiteSpace=wrap;html=1;" vertex="1" parent="1">
          <mxGeometry x="176" y="-10" width="236" height="120" as="geometry" />
        </mxCell>
        <mxCell id="3AiJn113C2eabqiWwvcP-4" value="&lt;font style=&quot;font-size: 22px;&quot;&gt;Github&lt;/font&gt;" style="text;html=1;align=center;verticalAlign=middle;whiteSpace=wrap;rounded=0;" vertex="1" parent="1">
          <mxGeometry x="229" y="25" width="130" height="50" as="geometry" />
        </mxCell>
        <mxCell id="3AiJn113C2eabqiWwvcP-6" value="&lt;font style=&quot;font-size: 22px;&quot;&gt;Push&lt;/font&gt;" style="text;html=1;align=center;verticalAlign=middle;whiteSpace=wrap;rounded=0;" vertex="1" parent="1">
          <mxGeometry x="260" y="170" width="130" height="50" as="geometry" />
        </mxCell>
        <mxCell id="3AiJn113C2eabqiWwvcP-7" value="" style="rounded=0;whiteSpace=wrap;html=1;" vertex="1" parent="1">
          <mxGeometry x="700" y="-120" width="1070" height="340" as="geometry" />
        </mxCell>
        <mxCell id="3AiJn113C2eabqiWwvcP-9" value="&lt;font style=&quot;font-size: 22px;&quot;&gt;Trigger CI/CD pipeline&lt;/font&gt;" style="text;html=1;align=center;verticalAlign=middle;whiteSpace=wrap;rounded=0;" vertex="1" parent="1">
          <mxGeometry x="410" width="270" height="50" as="geometry" />
        </mxCell>
        <mxCell id="3AiJn113C2eabqiWwvcP-13" style="edgeStyle=orthogonalEdgeStyle;rounded=0;orthogonalLoop=1;jettySize=auto;html=1;entryX=0;entryY=0.5;entryDx=0;entryDy=0;" edge="1" parent="1" source="3AiJn113C2eabqiWwvcP-10" target="3AiJn113C2eabqiWwvcP-12">
          <mxGeometry relative="1" as="geometry" />
        </mxCell>
        <mxCell id="3AiJn113C2eabqiWwvcP-10" value="" style="ellipse;whiteSpace=wrap;html=1;aspect=fixed;" vertex="1" parent="1">
          <mxGeometry x="740" width="100" height="100" as="geometry" />
        </mxCell>
        <mxCell id="3AiJn113C2eabqiWwvcP-11" value="&lt;span style=&quot;font-size: 22px;&quot;&gt;Build&lt;/span&gt;" style="text;html=1;align=center;verticalAlign=middle;whiteSpace=wrap;rounded=0;" vertex="1" parent="1">
          <mxGeometry x="725" y="25" width="130" height="50" as="geometry" />
        </mxCell>
        <mxCell id="3AiJn113C2eabqiWwvcP-16" style="edgeStyle=orthogonalEdgeStyle;rounded=0;orthogonalLoop=1;jettySize=auto;html=1;exitX=1;exitY=0.5;exitDx=0;exitDy=0;entryX=0;entryY=0.5;entryDx=0;entryDy=0;" edge="1" parent="1" source="3AiJn113C2eabqiWwvcP-12" target="3AiJn113C2eabqiWwvcP-15">
          <mxGeometry relative="1" as="geometry" />
        </mxCell>
        <mxCell id="3AiJn113C2eabqiWwvcP-12" value="" style="ellipse;whiteSpace=wrap;html=1;aspect=fixed;" vertex="1" parent="1">
          <mxGeometry x="950" width="100" height="100" as="geometry" />
        </mxCell>
        <mxCell id="3AiJn113C2eabqiWwvcP-14" value="&lt;span style=&quot;font-size: 22px;&quot;&gt;Pass&lt;/span&gt;" style="text;html=1;align=center;verticalAlign=middle;whiteSpace=wrap;rounded=0;" vertex="1" parent="1">
          <mxGeometry x="827" y="10" width="130" height="50" as="geometry" />
        </mxCell>
        <mxCell id="3AiJn113C2eabqiWwvcP-22" style="edgeStyle=orthogonalEdgeStyle;rounded=0;orthogonalLoop=1;jettySize=auto;html=1;" edge="1" parent="1" source="3AiJn113C2eabqiWwvcP-15" target="3AiJn113C2eabqiWwvcP-21">
          <mxGeometry relative="1" as="geometry" />
        </mxCell>
        <mxCell id="3AiJn113C2eabqiWwvcP-15" value="" style="ellipse;whiteSpace=wrap;html=1;aspect=fixed;" vertex="1" parent="1">
          <mxGeometry x="1160" width="100" height="100" as="geometry" />
        </mxCell>
        <mxCell id="3AiJn113C2eabqiWwvcP-17" value="&lt;span style=&quot;font-size: 22px;&quot;&gt;Test&lt;/span&gt;" style="text;html=1;align=center;verticalAlign=middle;whiteSpace=wrap;rounded=0;" vertex="1" parent="1">
          <mxGeometry x="935" y="25" width="130" height="50" as="geometry" />
        </mxCell>
        <mxCell id="3AiJn113C2eabqiWwvcP-18" value="&lt;span style=&quot;font-size: 22px;&quot;&gt;Lint&lt;/span&gt;" style="text;html=1;align=center;verticalAlign=middle;whiteSpace=wrap;rounded=0;" vertex="1" parent="1">
          <mxGeometry x="1145" y="25" width="130" height="50" as="geometry" />
        </mxCell>
        <mxCell id="3AiJn113C2eabqiWwvcP-19" value="&lt;span style=&quot;font-size: 22px;&quot;&gt;Pass&lt;/span&gt;" style="text;html=1;align=center;verticalAlign=middle;whiteSpace=wrap;rounded=0;" vertex="1" parent="1">
          <mxGeometry x="1040" y="10" width="130" height="50" as="geometry" />
        </mxCell>
        <mxCell id="3AiJn113C2eabqiWwvcP-26" style="edgeStyle=orthogonalEdgeStyle;rounded=0;orthogonalLoop=1;jettySize=auto;html=1;" edge="1" parent="1" source="3AiJn113C2eabqiWwvcP-21" target="3AiJn113C2eabqiWwvcP-25">
          <mxGeometry relative="1" as="geometry" />
        </mxCell>
        <mxCell id="3AiJn113C2eabqiWwvcP-21" value="" style="ellipse;whiteSpace=wrap;html=1;aspect=fixed;" vertex="1" parent="1">
          <mxGeometry x="1430" width="100" height="100" as="geometry" />
        </mxCell>
        <mxCell id="3AiJn113C2eabqiWwvcP-23" value="&lt;span style=&quot;font-size: 22px;&quot;&gt;Pass and push&lt;/span&gt;" style="text;html=1;align=center;verticalAlign=middle;whiteSpace=wrap;rounded=0;" vertex="1" parent="1">
          <mxGeometry x="1260" y="10" width="160" height="50" as="geometry" />
        </mxCell>
        <mxCell id="3AiJn113C2eabqiWwvcP-24" value="&lt;span style=&quot;font-size: 22px;&quot;&gt;Docker&lt;/span&gt;" style="text;html=1;align=center;verticalAlign=middle;whiteSpace=wrap;rounded=0;" vertex="1" parent="1">
          <mxGeometry x="1415" y="25" width="130" height="50" as="geometry" />
        </mxCell>
        <mxCell id="3AiJn113C2eabqiWwvcP-25" value="" style="ellipse;whiteSpace=wrap;html=1;aspect=fixed;" vertex="1" parent="1">
          <mxGeometry x="1650" width="100" height="100" as="geometry" />
        </mxCell>
        <mxCell id="3AiJn113C2eabqiWwvcP-27" value="&lt;span style=&quot;font-size: 22px;&quot;&gt;Push&lt;/span&gt;" style="text;html=1;align=center;verticalAlign=middle;whiteSpace=wrap;rounded=0;" vertex="1" parent="1">
          <mxGeometry x="1524" y="10" width="130" height="50" as="geometry" />
        </mxCell>
        <mxCell id="3AiJn113C2eabqiWwvcP-28" value="&lt;span style=&quot;font-size: 22px;&quot;&gt;Cloud&lt;/span&gt;" style="text;html=1;align=center;verticalAlign=middle;whiteSpace=wrap;rounded=0;" vertex="1" parent="1">
          <mxGeometry x="1635" y="25" width="130" height="50" as="geometry" />
        </mxCell>
      </root>
    </mxGraphModel>
  </diagram>
</mxfile>
